{"accessors":[{"bufferView":0,"componentType":5123,"count":40332,"max":[8955],"min":[0],"type":"SCALAR"},{"bufferView":1,"componentType":5126,"count":8956,"max":[1.619290828704834,4.294426441192627,1.2866711616516113],"min":[-1.619290828704834,2.0202419757843018,-0.9548145532608032],"type":"VEC3"},{"bufferView":2,"componentType":5126,"count":8956,"max":[0.99908447265625,1.0,0.999969482421875],"min":[-0.99908447265625,-1.0,-0.999969482421875],"type":"VEC3"},{"bufferView":3,"componentType":5126,"count":8956,"max":[1.0000017881393433,0.9899999937042594],"min":[0.0,-3.5762786865234375e-07],"type":"VEC2"},{"bufferView":4,"componentType":5126,"count":8956,"max":[0.0,1.0],"min":[0.0,1.0],"type":"VEC2"},{"bufferView":5,"componentType":5123,"count":32448,"max":[6677],"min":[0],"type":"SCALAR"},{"bufferView":6,"componentType":5126,"count":6678,"max":[1.2539278268814087,3.0999159812927246,0.32066237926483154],"min":[-1.2539278268814087,0.7507860660552979,-0.49603262543678284],"type":"VEC3"},{"bufferView":7,"componentType":5126,"count":6678,"max":[0.999908447265625,0.9942319989204407,0.999725341796875],"min":[-0.999908447265625,-0.9935606122016907,-0.999542236328125],"type":"VEC3"},{"bufferView":8,"componentType":5126,"count":6678,"max":[0.7910157442092896,1.0],"min":[0.0,0.8749999105930328],"type":"VEC2"},{"bufferView":9,"componentType":5126,"count":6678,"max":[1.0000001192092896,1.0],"min":[0.0,-1.1920928955078125e-07],"type":"VEC2"},{"bufferView":10,"componentType":5123,"count":7788,"max":[1625],"min":[0],"type":"SCALAR"},{"bufferView":11,"componentType":5126,"count":1626,"max":[1.2987499237060547,2.481668472290039,1.3101646900177002],"min":[-1.2987500429153442,0.7484757900238037,-1.136064887046814],"type":"VEC3"},{"bufferView":12,"componentType":5126,"count":1626,"max":[0.9984435439109802,0.999847412109375,0.999969482421875],"min":[-0.9984435439109802,-0.9998779296875,-0.999908447265625],"type":"VEC3"},{"bufferView":13,"componentType":5126,"count":1626,"max":[1.000000238418579,0.8749999552965164],"min":[0.0,-1.1920928955078125e-07],"type":"VEC2"},{"bufferView":14,"componentType":5126,"count":1626,"max":[0.0,1.0],"min":[0.0,1.0],"type":"VEC2"},{"bufferView":15,"componentType":5121,"count":1056,"max":[241],"min":[0],"type":"SCALAR"},{"bufferView":16,"componentType":5126,"count":242,"max":[1.4947048425674438,1.2309777736663818,1.509545922279358],"min":[-1.4947049617767334,0.7669849395751953,-1.279348373413086],"type":"VEC3"},{"bufferView":17,"componentType":5126,"count":242,"max":[0.999359130859375,0.5541245937347412,0.999053955078125],"min":[-0.999359130859375,-0.9283120036125183,-0.9843745231628418],"type":"VEC3"},{"bufferView":18,"componentType":5126,"count":242,"max":[0.9375001192092896,0.5],"min":[0.0625,0.37499988079071045],"type":"VEC2"},{"bufferView":19,"componentType":5126,"count":242,"max":[0.0,1.0],"min":[0.0,1.0],"type":"VEC2"},{"bufferView":20,"componentType":5123,"count":10752,"max":[2376],"min":[0],"type":"SCALAR"},{"bufferView":21,"componentType":5126,"count":2377,"max":[0.8523721098899841,4.194197177886963,0.8513419032096863],"min":[-0.8523722290992737,-0.58404541015625,-0.915902853012085],"type":"VEC3"},{"bufferView":22,"componentType":5126,"count":2377,"max":[0.999969482421875,1.0,0.999969482421875],"min":[-0.999969482421875,-1.0,-0.999786376953125],"type":"VEC3"},{"bufferView":23,"componentType":5126,"count":2377,"max":[1.000000238418579,0.9899999937042594],"min":[0.0,-2.384185791015625e-07],"type":"VEC2"},{"bufferView":24,"componentType":5126,"count":2377,"max":[0.0,1.0],"min":[0.0,1.0],"type":"VEC2"},{"bufferView":25,"componentType":5121,"count":228,"max":[51],"min":[0],"type":"SCALAR"},{"bufferView":26,"componentType":5126,"count":52,"max":[0.6824073195457458,3.341092586517334,-0.5428339838981628],"min":[-0.17241041362285614,2.703118324279785,-0.8914446234703064],"type":"VEC3"},{"bufferView":27,"componentType":5126,"count":52,"max":[0.9751579165458679,0.8561357259750366,0.9945066571235657],"min":[-0.9751579165458679,-0.8561357259750366,-0.9947507977485657],"type":"VEC3"},{"bufferView":28,"componentType":5126,"count":52,"max":[1.0,1.0],"min":[0.0,0.0],"type":"VEC2"},{"bufferView":29,"componentType":5126,"count":52,"max":[0.0,1.0],"min":[0.0,1.0],"type":"VEC2"}],"asset":{"generator":"Soft8Soft Verge3D for Blender add-on","version":"2.0"},"bufferViews":[{"buffer":0,"byteLength":80664,"byteOffset":0,"target":34963},{"buffer":0,"byteLength":107472,"byteOffset":80664,"target":34962},{"buffer":0,"byteLength":107472,"byteOffset":188136,"target":34962},{"buffer":0,"byteLength":71648,"byteOffset":295608,"target":34962},{"buffer":0,"byteLength":71648,"byteOffset":367256,"target":34962},{"buffer":0,"byteLength":64896,"byteOffset":438904,"target":34963},{"buffer":0,"byteLength":80136,"byteOffset":503800,"target":34962},{"buffer":0,"byteLength":80136,"byteOffset":583936,"target":34962},{"buffer":0,"byteLength":53424,"byteOffset":664072,"target":34962},{"buffer":0,"byteLength":53424,"byteOffset":717496,"target":34962},{"buffer":0,"byteLength":15576,"byteOffset":770920,"target":34963},{"buffer":0,"byteLength":19512,"byteOffset":786496,"target":34962},{"buffer":0,"byteLength":19512,"byteOffset":806008,"target":34962},{"buffer":0,"byteLength":13008,"byteOffset":825520,"target":34962},{"buffer":0,"byteLength":13008,"byteOffset":838528,"target":34962},{"buffer":0,"byteLength":1056,"byteOffset":851536,"target":34963},{"buffer":0,"byteLength":2904,"byteOffset":852592,"target":34962},{"buffer":0,"byteLength":2904,"byteOffset":855496,"target":34962},{"buffer":0,"byteLength":1936,"byteOffset":858400,"target":34962},{"buffer":0,"byteLength":1936,"byteOffset":860336,"target":34962},{"buffer":0,"byteLength":21504,"byteOffset":862272,"target":34963},{"buffer":0,"byteLength":28524,"byteOffset":883776,"target":34962},{"buffer":0,"byteLength":28524,"byteOffset":912300,"target":34962},{"buffer":0,"byteLength":19016,"byteOffset":940824,"target":34962},{"buffer":0,"byteLength":19016,"byteOffset":959840,"target":34962},{"buffer":0,"byteLength":228,"byteOffset":978856,"target":34963},{"buffer":0,"byteLength":624,"byteOffset":979084,"target":34962},{"buffer":0,"byteLength":624,"byteOffset":979708,"target":34962},{"buffer":0,"byteLength":416,"byteOffset":980332,"target":34962},{"buffer":0,"byteLength":416,"byteOffset":980748,"target":34962}],"buffers":[{"byteLength":981164,"uri":"linchuan.bin"}],"cameras":[{"extensions":{"S8S_v3d_camera_data":{"controls":"ORBIT","enablePan":true,"moveSpeed":1,"orbitMaxDistance":10000,"orbitMaxPolarAngle":3.141592653589793,"orbitMinDistance":0,"orbitMinPolarAngle":0,"orbitTarget":[-0.04594086855649948,1.968894362449646,2.645383574417792e-07],"rotateSpeed":1,"viewportFitInitialAspect":1,"viewportFitType":"VERTICAL"}},"name":"__DEFAULT__","perspective":{"aspectRatio":1,"yfov":0.7853981633974483,"zfar":1000.0,"znear":0.10000000149011612},"type":"perspective"}],"extensionsUsed":["S8S_v3d_texture_data","S8S_v3d_material_data","S8S_v3d_camera_data","S8S_v3d_mesh_data","S8S_v3d_node_data","S8S_v3d_scene_data"],"images":[{"uri":"environment.hdr"}],"materials":[{"extensions":{"S8S_v3d_material_data":{"materialIndex":0,"nodeGraph":{"edges":[{"fromNode":0,"fromOutput":0,"toInput":0,"toNode":1},{"fromNode":3,"fromOutput":1,"toInput":0,"toNode":4},{"fromNode":4,"fromOutput":0,"toInput":0,"toNode":0},{"fromNode":2,"fromOutput":1,"toInput":0,"toNode":3}],"nodes":[{"inputs":[[0.800000011920929,0.800000011920929,0.800000011920929,1.0],0.0,[1.0,0.20000000298023224,0.10000000149011612],[0.800000011920929,0.800000011920929,0.800000011920929,1.0],0.20000000298023224,0.5,0.0,0.4000000059604645,0.0,0.0,0.0,0.5,0.0,0.029999999329447746,1.4500000476837158,0.0,0.0,[0.0,0.0,0.0,1.0],1.0,1.0,[0.0,0.0,0.0],[0.0,0.0,0.0],[0.0,0.0,0.0]],"is_active_output":false,"name":"Principled BSDF","outputs":[[0,0,0,0]],"type":"BSDF_PRINCIPLED_BL"},{"inputs":[[0,0,0,0],[0,0,0,0],[0.0,0.0,0.0]],"is_active_output":true,"name":"Material Output","outputs":[],"type":"OUTPUT_MATERIAL_BL"},{"inputs":[],"is_active_output":false,"name":"纹理坐标","object":-1,"outputs":[[0.0,0.0,0.0],[0.0,0.0,0.0],[0.0,0.0,0.0],[0.0,0.0,0.0],[0.0,0.0,0.0],[0.0,0.0,0.0],[0.0,0.0,0.0]],"type":"TEX_COORD_BL"},{"inputs":[[0.0,0.0,1.0]],"is_active_output":false,"name":"法向","outputs":[[0.008333333767950535,0.4166666865348816,0.9090211987495422],0.0],"type":"NORMAL_BL"},{"curve":{"input":[0.20000019669532776,0.6500003337860107],"interpolation":"LINEAR","output":[0.5656164288520813,0.7220243215560913,1.0,1.0,1.0,1.0,1.0,1.0]},"inputs":[0.5],"is_active_output":false,"name":"颜色渐变","outputs":[[0.0,0.0,0.0,0.0],0.0],"type":"VALTORGB_BL"}]},"useCastShadows":true}},"name":"头发"},{"extensions":{"S8S_v3d_material_data":{"materialIndex":0,"nodeGraph":{"edges":[{"fromNode":0,"fromOutput":0,"toInput":0,"toNode":1}],"nodes":[{"inputs":[[0.34191450476646423,0.6104958057403564,1.0000001192092896,1.0],0.0,[1.0,0.20000000298023224,0.10000000149011612],[0.800000011920929,0.800000011920929,0.800000011920929,1.0],0.20000000298023224,0.5,0.0,0.4000000059604645,0.0,0.0,0.0,0.5,0.0,0.029999999329447746,1.4500000476837158,0.0,0.0,[0.0,0.0,0.0,1.0],1.0,1.0,[0.0,0.0,0.0],[0.0,0.0,0.0],[0.0,0.0,0.0]],"is_active_output":false,"name":"Principled BSDF","outputs":[[0,0,0,0]],"type":"BSDF_PRINCIPLED_BL"},{"inputs":[[0,0,0,0],[0,0,0,0],[0.0,0.0,0.0]],"is_active_output":true,"name":"Material Output","outputs":[],"type":"OUTPUT_MATERIAL_BL"}]},"useCastShadows":true}},"name":"布料浅蓝"},{"extensions":{"S8S_v3d_material_data":{"materialIndex":0,"nodeGraph":{"edges":[{"fromNode":0,"fromOutput":0,"toInput":0,"toNode":1}],"nodes":[{"inputs":[[0.7427577972412109,0.8152695298194885,1.0,1.0],0.0,[1.0,0.20000000298023224,0.10000000149011612],[0.800000011920929,0.800000011920929,0.800000011920929,1.0],0.20000000298023224,0.5,0.0,0.4000000059604645,0.0,0.0,0.0,0.5,0.0,0.029999999329447746,1.4500000476837158,0.0,0.0,[0.0,0.0,0.0,1.0],1.0,1.0,[0.0,0.0,0.0],[0.0,0.0,0.0],[0.0,0.0,0.0]],"is_active_output":false,"name":"Principled BSDF","outputs":[[0,0,0,0]],"type":"BSDF_PRINCIPLED_BL"},{"inputs":[[0,0,0,0],[0,0,0,0],[0.0,0.0,0.0]],"is_active_output":true,"name":"Material Output","outputs":[],"type":"OUTPUT_MATERIAL_BL"}]},"useCastShadows":true}},"name":"布料白"},{"extensions":{"S8S_v3d_material_data":{"materialIndex":0,"nodeGraph":{"edges":[{"fromNode":0,"fromOutput":0,"toInput":0,"toNode":1}],"nodes":[{"inputs":[[0.04518621414899826,0.07421357929706573,0.23455063998699188,1.0],0.0,[1.0,0.20000000298023224,0.10000000149011612],[0.800000011920929,0.800000011920929,0.800000011920929,1.0],0.20000000298023224,0.5,0.0,0.4000000059604645,0.0,0.0,0.0,0.5,0.0,0.029999999329447746,1.4500000476837158,0.0,0.0,[0.0,0.0,0.0,1.0],1.0,1.0,[0.0,0.0,0.0],[0.0,0.0,0.0],[0.0,0.0,0.0]],"is_active_output":false,"name":"Principled BSDF","outputs":[[0,0,0,0]],"type":"BSDF_PRINCIPLED_BL"},{"inputs":[[0,0,0,0],[0,0,0,0],[0.0,0.0,0.0]],"is_active_output":true,"name":"Material Output","outputs":[],"type":"OUTPUT_MATERIAL_BL"}]},"useCastShadows":true}},"name":"布料蓝"},{"extensions":{"S8S_v3d_material_data":{"materialIndex":0,"nodeGraph":{"edges":[{"fromNode":0,"fromOutput":0,"toInput":0,"toNode":1}],"nodes":[{"inputs":[[0.09084172546863556,0.09084172546863556,0.09989873319864273,1.0],0.0,[1.0,0.20000000298023224,0.10000000149011612],[0.800000011920929,0.800000011920929,0.800000011920929,1.0],0.20000000298023224,0.5,0.0,0.30000001192092896,0.0,0.0,0.0,0.5,0.0,0.029999999329447746,1.4500000476837158,0.0,0.0,[0.0,0.0,0.0,1.0],1.0,1.0,[0.0,0.0,0.0],[0.0,0.0,0.0],[0.0,0.0,0.0]],"is_active_output":false,"name":"Principled BSDF","outputs":[[0,0,0,0]],"type":"BSDF_PRINCIPLED_BL"},{"inputs":[[0,0,0,0],[0,0,0,0],[0.0,0.0,0.0]],"is_active_output":true,"name":"Material Output","outputs":[],"type":"OUTPUT_MATERIAL_BL"}]},"useCastShadows":true}},"name":"皮肤"},{"extensions":{"S8S_v3d_material_data":{"materialIndex":0,"nodeGraph":{"edges":[{"fromNode":0,"fromOutput":0,"toInput":0,"toNode":1}],"nodes":[{"inputs":[[0.40197786688804626,0.5711249709129333,0.9734456539154053,1.0],0.0,[1.0,0.20000000298023224,0.10000000149011612],[0.800000011920929,0.800000011920929,0.800000011920929,1.0],0.20000000298023224,0.5,0.0,0.4000000059604645,0.0,0.0,0.0,0.5,0.0,0.029999999329447746,1.4500000476837158,0.0,0.0,[0.0,0.0,0.0,1.0],1.0,1.0,[0.0,0.0,0.0],[0.0,0.0,0.0],[0.0,0.0,0.0]],"is_active_output":false,"name":"Principled BSDF","outputs":[[0,0,0,0]],"type":"BSDF_PRINCIPLED_BL"},{"inputs":[[0,0,0,0],[0,0,0,0],[0.0,0.0,0.0]],"is_active_output":true,"name":"Material Output","outputs":[],"type":"OUTPUT_MATERIAL_BL"}]},"useCastShadows":true}},"name":"面纹蓝"},{"extensions":{"S8S_v3d_material_data":{"materialIndex":0,"nodeGraph":{"edges":[{"fromNode":0,"fromOutput":0,"toInput":0,"toNode":1},{"fromNode":4,"fromOutput":0,"toInput":1,"toNode":2},{"fromNode":3,"fromOutput":0,"toInput":0,"toNode":2},{"fromNode":2,"fromOutput":0,"toInput":0,"toNode":0}],"nodes":[{"inputs":[[0.05087608844041824,0.05087608844041824,0.05087608844041824,1.0],1.0],"is_active_output":false,"name":"Background","outputs":[[0,0,0,0]],"type":"BACKGROUND_BL"},{"inputs":[[0,0,0,0],[0,0,0,0]],"is_active_output":true,"name":"World Output","outputs":[],"type":"OUTPUT_WORLD_BL"},{"blendType":"MIX","inputs":[0.5,[0.5,0.5,0.5,1.0],[0.05126946419477463,0.05126946419477463,0.05126946419477463,1.0]],"is_active_output":false,"name":"Mix","outputs":[[0.0,0.0,0.0,0.0]],"type":"MIX_RGB_BL","useClamp":false},{"inputs":[],"is_active_output":false,"name":"Light Path","outputs":[0.0,0.0,0.0,0.0,0.0,0.0,0.0,0.0,0.0,0.0,0.0,0.0,0.0],"type":"LIGHT_PATH_BL"},{"inputs":[[0.0,0.0,0.0]],"is_active_output":false,"name":"Environment Texture","outputs":[[0.0,0.0,0.0,0.0]],"projection":"EQUIRECTANGULAR","texture":0,"type":"TEX_ENVIRONMENT_BL"}]},"useCastShadows":true}},"name":"Verge3D_Environment_World"}],"meshes":[{"extensions":{"S8S_v3d_mesh_data":{"colorLayers":{},"uvLayers":{"UV 贴图":"TEXCOORD_0","UVMap":"TEXCOORD_1"}}},"name":"柱体","primitives":[{"attributes":{"NORMAL":2,"POSITION":1,"TEXCOORD_0":3,"TEXCOORD_1":4},"indices":0,"material":0,"mode":4},{"attributes":{"NORMAL":7,"POSITION":6,"TEXCOORD_0":8,"TEXCOORD_1":9},"indices":5,"material":3,"mode":4},{"attributes":{"NORMAL":12,"POSITION":11,"TEXCOORD_0":13,"TEXCOORD_1":14},"indices":10,"material":2,"mode":4},{"attributes":{"NORMAL":17,"POSITION":16,"TEXCOORD_0":18,"TEXCOORD_1":19},"indices":15,"material":1,"mode":4},{"attributes":{"NORMAL":22,"POSITION":21,"TEXCOORD_0":23,"TEXCOORD_1":24},"indices":20,"material":4,"mode":4},{"attributes":{"NORMAL":27,"POSITION":26,"TEXCOORD_0":28,"TEXCOORD_1":29},"indices":25,"material":5,"mode":4}]}],"nodes":[{"extensions":{"S8S_v3d_node_data":{"frustumCulling":true,"groupNames":["Collection 1"],"hidden":false,"hidpiCompositing":false,"objectColor":[1.0,1.0,1.0],"objectIndex":0,"renderOrder":0,"useShadows":true}},"mesh":0,"name":"柱体","rotation":[-0.0,-1.0,0.0,1.6292068494294654e-07]},{"camera":0,"name":"__DEFAULT_CAMERA__","rotation":[-0.0499405637383461,-0.2986307740211487,-0.01565041020512581,0.9529327750205994],"scale":[0.9999998807907104,0.9999997615814209,0.9999997615814209],"translation":[-5.953890323638916,3.056908130645752,8.500432014465332]}],"samplers":[{}],"scene":0,"scenes":[{"extensions":{"S8S_v3d_scene_data":{"aaMethod":"AUTO","iblEnvironmentMode":"PMREM","physicallyCorrectLights":true,"pmremMaxTileSize":256,"shadowMap":{"esmDistanceScale":1.0,"renderReverseSided":false,"renderSingleSided":true,"type":"PCFPOISSON"},"worldMaterial":6}},"extras":{"animFrameRate":24,"coordSystem":"Z_UP_RIGHT"},"name":"Scene","nodes":[0,1]}],"textures":[{"extensions":{"S8S_v3d_texture_data":{"colorSpace":"linear"}},"name":"environment.hdr","sampler":0,"source":0}]}
